HIERARCHY
ROOT hip
{
  OFFSET 0 0 0
  CHANNELS 6 Xposition Yposition Zposition Zrotation Yrotation Xrotation
  JOINT abdomen
  {
    OFFSET 0 20.6881 -0.73152
    CHANNELS 3 Zrotation Xrotation Yrotation
    JOINT chest
    {
      OFFSET 0 11.7043 -0.48768
      CHANNELS 3 Zrotation Xrotation Yrotation
      JOINT neck
      {
        OFFSET 0 22.1894 -2.19456
        CHANNELS 3 Zrotation Xrotation Yrotation
        JOINT head
        {
          OFFSET -0.24384 7.07133 1.2192
          CHANNELS 3 Zrotation Xrotation Yrotation
          JOINT leftEye
          {
            OFFSET 4.14528 8.04674 8.04672
            CHANNELS 3 Zrotation Xrotation Yrotation
            End Site
            {
              OFFSET 1 0 0
            }
          }
          JOINT rightEye
          {
            OFFSET -3.6576 8.04674 8.04672
            CHANNELS 3 Zrotation Xrotation Yrotation
            End Site
            {
              OFFSET 1 0 0
            }
          }
        }
      }
      JOINT rCollar
      {
        OFFSET -2.68224 19.2634 -4.8768
        CHANNELS 3 Zrotation Xrotation Yrotation
        JOINT rShldr
        {
          OFFSET -8.77824 -1.95073 1.46304
          CHANNELS 3 Zrotation Xrotation Yrotation
          JOINT rForeArm
          {
            OFFSET -28.1742 -1.7115 0.48768
            CHANNELS 3 Zrotation Xrotation Yrotation
            JOINT rHand
            {
              OFFSET -22.5879 0.773209 7.07136
              CHANNELS 3 Zrotation Xrotation Yrotation
              JOINT rThumb1
              {
                OFFSET -1.2192 -0.487915 3.41376
                CHANNELS 3 Zrotation Xrotation Yrotation
                JOINT rThumb2
                {
                  OFFSET -3.37035 -0.52449 3.41376
                  CHANNELS 3 Zrotation Xrotation Yrotation
                  End Site
                  {
                    OFFSET -1.78271 -1.18214 1.43049
                  }
                }
              }
              JOINT rIndex1
              {
                OFFSET -7.75947 0.938293 5.60832
                CHANNELS 3 Zrotation Xrotation Yrotation
                JOINT rIndex2
                {
                  OFFSET -2.54057 -0.884171 1.56538
                  CHANNELS 3 Zrotation Xrotation Yrotation
                  End Site
                  {
                    OFFSET -1.62519 -0.234802 1.16502
                  }
                }
              }
              JOINT rMid1
              {
                OFFSET -8.24714 1.18213 3.41376
                CHANNELS 3 Zrotation Xrotation Yrotation
                JOINT rMid2
                {
                  OFFSET -3.10165 -0.590103 1.0647
                  CHANNELS 3 Zrotation Xrotation Yrotation
                  End Site
                  {
                    OFFSET -2.48547 -0.328903 0.83742
                  }
                }
              }
              JOINT rRing1
              {
                OFFSET -8.82822 0.546677 1.51678
                CHANNELS 3 Zrotation Xrotation Yrotation
                JOINT rRing2
                {
                  OFFSET -2.60934 -0.819778 -0.0198488
                  CHANNELS 3 Zrotation Xrotation Yrotation
                  End Site
                  {
                    OFFSET -2.33842 -0.294052 0.168128
                  }
                }
              }
              JOINT rPinky1
              {
                OFFSET -8.27202 -0.0477905 -0.4584
                CHANNELS 3 Zrotation Xrotation Yrotation
                JOINT rPinky2
                {
                  OFFSET -1.82734 -0.647385 -0.700984
                  CHANNELS 3 Zrotation Xrotation Yrotation
                  End Site
                  {
                    OFFSET -1.69225 -0.51767 -0.607171
                  }
                }
              }
            }
          }
        }
      }
      JOINT lCollar
      {
        OFFSET 2.68224 19.2634 -4.8768
        CHANNELS 3 Zrotation Xrotation Yrotation
        JOINT lShldr
        {
          OFFSET 8.77824 -1.95073 1.46304
          CHANNELS 3 Zrotation Xrotation Yrotation
          JOINT lForeArm
          {
            OFFSET 28.1742 -1.7115 0.48768
            CHANNELS 3 Zrotation Xrotation Yrotation
            JOINT lHand
            {
              OFFSET 22.5879 0.773209 7.07136
              CHANNELS 3 Zrotation Xrotation Yrotation
              JOINT lThumb1
              {
                OFFSET 1.2192 -0.487915 3.41376
                CHANNELS 3 Zrotation Xrotation Yrotation
                JOINT lThumb2
                {
                  OFFSET 3.37035 -0.52449 3.41376
                  CHANNELS 3 Zrotation Xrotation Yrotation
                  End Site
                  {
                    OFFSET 1.78271 -1.18214 1.43049
                  }
                }
              }
              JOINT lIndex1
              {
                OFFSET 7.75947 0.938293 5.60832
                CHANNELS 3 Zrotation Xrotation Yrotation
                JOINT lIndex2
                {
                  OFFSET 2.54057 -0.884171 1.56538
                  CHANNELS 3 Zrotation Xrotation Yrotation
                  End Site
                  {
                    OFFSET 1.62519 -0.234802 1.16502
                  }
                }
              }
              JOINT lMid1
              {
                OFFSET 8.24714 1.18213 3.41376
                CHANNELS 3 Zrotation Xrotation Yrotation
                JOINT lMid2
                {
                  OFFSET 3.10165 -0.590103 1.0647
                  CHANNELS 3 Zrotation Xrotation Yrotation
                  End Site
                  {
                    OFFSET 2.48547 -0.328903 0.83742
                  }
                }
              }
              JOINT lRing1
              {
                OFFSET 8.82822 0.546677 1.51678
                CHANNELS 3 Zrotation Xrotation Yrotation
                JOINT lRing2
                {
                  OFFSET 2.60934 -0.819778 -0.0198488
                  CHANNELS 3 Zrotation Xrotation Yrotation
                  End Site
                  {
                    OFFSET 2.33842 -0.294052 0.168128
                  }
                }
              }
              JOINT lPinky1
              {
                OFFSET 8.27202 -0.0477905 -0.4584
                CHANNELS 3 Zrotation Xrotation Yrotation
                JOINT lPinky2
                {
                  OFFSET 1.82734 -0.647385 -0.700984
                  CHANNELS 3 Zrotation Xrotation Yrotation
                  End Site
                  {
                    OFFSET 1.69225 -0.51767 -0.607171
                  }
                }
              }
            }
          }
        }
      }
    }
  }
  JOINT rButtock
  {
    OFFSET -8.77824 4.35084 1.2192
    CHANNELS 3 Zrotation Xrotation Yrotation
    JOINT rThigh
    {
      OFFSET 0 -1.70687 -2.19456
      CHANNELS 3 Zrotation Xrotation Yrotation
      JOINT rShin
      {
        OFFSET 0 -36.8199 0.73152
        CHANNELS 3 Zrotation Xrotation Yrotation
        JOINT rFoot
        {
          OFFSET 0.73152 -45.1104 -5.12064
          CHANNELS 3 Zrotation Xrotation Yrotation
          End Site
          {
            OFFSET -1.1221 -3.69964 12.103
          }
        }
      }
    }
  }
  JOINT lButtock
  {
    OFFSET 8.77824 4.35084 1.2192
    CHANNELS 3 Zrotation Xrotation Yrotation
    JOINT lThigh
    {
      OFFSET 0 -1.70687 -2.19456
      CHANNELS 3 Zrotation Xrotation Yrotation
      JOINT lShin
      {
        OFFSET 0 -36.8199 0.73152
        CHANNELS 3 Zrotation Xrotation Yrotation
        JOINT lFoot
        {
          OFFSET -0.73152 -45.1104 -5.12064
          CHANNELS 3 Zrotation Xrotation Yrotation
          End Site
          {
            OFFSET 1.1221 -3.69964 12.103
          }
        }
      }
    }
  }
}
MOTION
Frames:	6
Frame Time:	0.00833333
25.5882 84.1089 -144.318 0.0 0.0 0.0 -1.50365 -0.00293076 -0.0409966 -0.414503 0.000754975 -0.0717858 -2.14682e-14 0.0 -2.48481e-16 -6.47945e-14 3.18055e-15 -6.4605e-16 -0.0 0.0 0.0 -0.0 0.0 0.0 -1.08357e-14 -3.76604e-17 4.96962e-17 -2.239e-13 -1.54679e-15 -1.78906e-15 -3.88952e-12 1.13665e-12 -2.54444e-14 -4.4602e-11 -1.32992e-12 -4.86625e-13 -1.052e-10 -4.09102e-13 -1.09093e-12 -1.81683e-10 -6.99722e-13 -1.89641e-12 -1.05194e-10 -4.06713e-13 -1.10683e-12 7.73091 5.47488 0.417314 -1.05201e-10 -4.08602e-13 -1.09729e-12 2.90554 0.965183 0.102902 -1.05195e-10 -4.08999e-13 -1.09888e-12 10.2786 0.731801 0.0259123 -1.05199e-10 -4.08304e-13 -1.09411e-12 2.22167 -0.733487 -0.20892 -1.08326e-14 -4.03781e-17 -1.49089e-16 -2.28267e-13 -1.3418e-15 -3.77691e-15 -3.89921e-12 -1.19489e-12 3.18055e-15 -4.45854e-11 1.01818e-12 -5.21611e-13 -1.05185e-10 -3.76214e-13 -1.10365e-12 -1.81648e-10 -6.45653e-13 -1.89323e-12 -1.05194e-10 -3.71727e-13 -1.08775e-12 -7.73091 5.47488 -0.417314 -1.05187e-10 -3.75504e-13 -1.10365e-12 -2.90554 0.965183 -0.102902 -1.05197e-10 -3.75504e-13 -1.10206e-12 -10.2786 0.731801 -0.0259123 -1.05183e-10 -3.76498e-13 -1.11001e-12 -2.22167 -0.733487 0.20892 -2.03217e-16 0.0 -3.88251e-19 -0.63672 -1.92306 -0.00649768 -0.00920236 -2.07856 -0.0759655 -0.504009 3.99732 0.139107 2.03217e-16 0.0 3.88251e-19 -1.65076 -6.46943 0.15292 -0.00228871 6.1568 -0.0670101 0.526719 0.308445 -0.0661945
23.8472 82.4511 -146.565 -6.5678 -2.095 7.7729 0.174374 -0.112003 0.241268 -0.0505419 -0.54898 0.00830833 -4.62793 2.43243 -5.11975 6.87951 -3.86783 -8.88918 -0.0 0.0 0.0 -0.0 0.0 0.0 -5.60487e-14 -4.82576e-14 -4.04177e-14 22.0309 0.713463 1.18089 -22.8095 -20.6817 14.9184 1.0948 -23.5942 -2.38242 -1.13207e-10 -5.9282e-11 -1.29029e-11 -1.91338e-10 -1.10612e-10 -2.69693e-11 -1.132e-10 -5.92813e-11 -1.29173e-11 7.73091 5.47488 0.417314 -1.13206e-10 -5.92829e-11 -1.29076e-11 2.90554 0.965183 0.102902 -1.13201e-10 -5.92833e-11 -1.29086e-11 10.2786 0.731801 0.0259123 -1.13208e-10 -5.92835e-11 -1.29036e-11 2.22167 -0.733487 -0.20892 -5.60726e-14 -4.82593e-14 -4.06619e-14 -22.3402 2.84363 1.32669 4.72671 -2.25919 -7.25773 -0.00161669 0.895592 -0.125812 3.68186e-10 4.19317e-10 -2.20941e-10 6.35078e-10 7.25394e-10 -3.84341e-10 3.68179e-10 4.19322e-10 -2.20928e-10 -7.73091 5.47488 -0.417314 3.68185e-10 4.19319e-10 -2.20941e-10 -2.90554 0.965183 -0.102902 3.68174e-10 4.19318e-10 -2.20941e-10 -10.2786 0.731801 -0.0259123 3.68186e-10 4.19316e-10 -2.20949e-10 -2.22167 -0.733487 0.20892 -2.03217e-16 0.0 -3.88251e-19 0.486121 -5.64901 -0.226033 0.00912561 5.04783 0.0727933 -1.01635 -0.28328 -5.43347 2.03217e-16 0.0 3.88251e-19 0.658101 -10.6803 1.21241 -0.00286177 12.7497 -0.156913 0.864751 -1.54492 4.49017
23.8542 82.4466 -146.573 -6.5586 -2.0348 7.8084 1.95171 -0.228784 0.542913 0.333946 -1.12716 0.093817 -9.04647 4.90412 -10.5671 12.83 -7.58128 -18.4299 -0.0 0.0 0.0 -0.0 0.0 0.0 -1.03754e-13 -9.52346e-14 -8.61545e-14 45.3007 1.49777 2.41846 -33.1837 -37.4466 37.1884 -0.856917 -48.3888 -6.77196 -9.18123e-11 -1.00833e-10 -6.10132e-11 -1.48322e-10 -1.81467e-10 -1.12031e-10 -9.18052e-11 -1.00835e-10 -6.10259e-11 7.73091 5.47488 0.417314 -9.18108e-11 -1.00836e-10 -6.1016e-11 2.90554 0.965183 0.102902 -9.18063e-11 -1.00836e-10 -6.10164e-11 10.2786 0.731801 0.0259123 -9.18159e-11 -1.00837e-10 -6.10112e-11 2.22167 -0.733487 -0.20892 -1.03809e-13 -9.52352e-14 -8.64496e-14 -46.105 5.8433 2.74205 9.10228 -4.5234 -14.9598 0.000971384 1.85171 -0.260233 8.84598e-10 9.30634e-10 -4.30692e-10 1.52622e-09 1.60999e-09 -7.49579e-10 8.84593e-10 9.3064e-10 -4.30682e-10 -7.73091 5.47488 -0.417314 8.84598e-10 9.30637e-10 -4.3069e-10 -2.90554 0.965183 -0.102902 8.84586e-10 9.30635e-10 -4.30693e-10 -10.2786 0.731801 -0.0259123 8.84596e-10 9.30633e-10 -4.307e-10 -2.22167 -0.733487 0.20892 -2.03217e-16 0.0 -3.88251e-19 1.64286 -9.58406 -0.46141 -0.0124636 12.5791 0.23498 -2.45811 -4.71462 -11.3576 2.03217e-16 0.0 3.88251e-19 3.27582 -15.1182 2.37231 0.0204906 19.7186 -0.259665 1.54261 -3.4687 9.32726
23.8451 82.4436 -146.581 -6.4962 -2.3161 7.8545 3.53365 -0.330117 0.805809 0.681992 -1.64844 0.168565 -12.5887 7.06392 -15.4657 17.1326 -10.4855 -27.0948 -0.0 0.0 0.0 -0.0 0.0 0.0 -1.46475e-13 -1.44698e-13 -1.21353e-13 66.0044 2.13675 3.54487 -30.7223 -42.0685 63.9044 -12.0246 -69.7888 -19.2779 -1.29219e-10 -1.77028e-10 -3.6527e-11 -2.10646e-10 -3.30436e-10 -7.71151e-11 -1.29212e-10 -1.7703e-10 -3.65381e-11 7.73091 5.47488 0.417314 -1.29217e-10 -1.77031e-10 -3.65281e-11 2.90554 0.965183 0.102902 -1.29213e-10 -1.77032e-10 -3.65281e-11 10.2786 0.731801 0.0259123 -1.29225e-10 -1.77034e-10 -3.65225e-11 2.22167 -0.733487 -0.20892 -1.46553e-13 -1.44697e-13 -1.21688e-13 -67.4191 8.51249 4.01951 12.5002 -6.34352 -21.8971 0.00696035 2.68672 -0.377806 1.31493e-09 1.2587e-09 -6.60617e-10 2.26853e-09 2.17747e-09 -1.14924e-09 1.31492e-09 1.25871e-09 -6.6061e-10 -7.73091 5.47488 -0.417314 1.31493e-09 1.25871e-09 -6.60614e-10 -2.90554 0.965183 -0.102902 1.31492e-09 1.2587e-09 -6.60619e-10 -10.2786 0.731801 -0.0259123 1.31492e-09 1.2587e-09 -6.60626e-10 -2.22167 -0.733487 0.20892 -2.03217e-16 0.0 -3.88251e-19 2.6441 -13.1002 -0.679504 -0.0698673 19.3002 0.391359 -4.52275 -8.47778 -16.7663 2.03217e-16 0.0 3.88251e-19 5.76838 -19.0767 3.46059 0.0649674 25.9351 -0.362382 2.41897 -5.11792 13.6535
23.8605 82.4444 -146.573 -6.5061 -2.0767 7.8095 4.62468 -0.39286 0.971818 0.93564 -2.02748 0.216341 -14.8214 8.65947 -18.8975 19.6635 -12.399 -33.1917 -0.0 0.0 0.0 -0.0 0.0 0.0 -1.76733e-13 -2.00375e-13 -1.30204e-13 80.3599 2.41612 4.39094 -28.3236 -38.0979 80.5762 -57.3825 -81.1941 -65.1242 -3.1363e-10 -3.3983e-10 1.6945e-10 -5.36319e-10 -6.74688e-10 2.57746e-10 -3.13623e-10 -3.39832e-10 1.69441e-10 7.73091 5.47488 0.417314 -3.13627e-10 -3.39833e-10 1.6945e-10 2.90554 0.965183 0.102902 -3.13622e-10 -3.39834e-10 1.6945e-10 10.2786 0.731801 0.0259123 -3.13637e-10 -3.39837e-10 1.69457e-10 2.22167 -0.733487 -0.20892 -1.76817e-13 -2.00374e-13 -1.30552e-13 -82.3235 10.3731 4.9146 14.6176 -7.46377 -26.8052 0.0127256 3.21903 -0.452887 1.53005e-09 1.12865e-09 -9.4098e-10 2.63875e-09 1.9522e-09 -1.63494e-09 1.53005e-09 1.12866e-09 -9.40973e-10 -7.73091 5.47488 -0.417314 1.53005e-09 1.12866e-09 -9.40977e-10 -2.90554 0.965183 -0.102902 1.53004e-09 1.12866e-09 -9.40982e-10 -10.2786 0.731801 -0.0259123 1.53005e-09 1.12865e-09 -9.40989e-10 -2.22167 -0.733487 0.20892 -2.03217e-16 0.0 -3.88251e-19 3.31842 -15.5696 -0.841591 -0.133822 23.9965 0.511595 -6.4044 -10.9462 -20.6641 2.03217e-16 0.0 3.88251e-19 7.59428 -21.8588 4.2609 0.111383 30.2705 -0.442852 3.17179 -6.21086 16.6527
23.8872 82.4408 -146.578 -6.4844 -1.9897 7.8286 5.0276 -0.402247 0.996612 1.05845 -2.21139 0.224796 -15.5788 9.60838 -20.2225 20.5859 -13.6328 -35.5348 -0.0 0.0 0.0 -0.0 0.0 0.0 -1.90546e-13 -2.81508e-13 -9.48238e-14 85.8544 2.19801 4.84403 -28.2372 -35.3508 85.7402 -96.2671 -81.1901 -104.089 -8.15106e-10 -7.26424e-10 7.43522e-10 -1.42763e-09 -1.50058e-09 1.19882e-09 -8.151e-10 -7.26425e-10 7.43515e-10 7.73091 5.47488 0.417314 -8.15104e-10 -7.26426e-10 7.43523e-10 2.90554 0.965183 0.102902 -8.15097e-10 -7.26427e-10 7.43522e-10 10.2786 0.731801 0.0259123 -8.15113e-10 -7.26431e-10 7.4353e-10 2.22167 -0.733487 -0.20892 -1.90607e-13 -2.81507e-13 -9.51383e-14 -88.1272 11.1071 5.25244 15.4214 -7.88527 -28.8042 0.0143931 3.32359 -0.467661 1.38285e-09 1.49649e-10 -1.39522e-09 2.38205e-09 2.57818e-10 -2.41938e-09 1.38285e-09 1.49655e-10 -1.39521e-09 -7.73091 5.47488 -0.417314 1.38285e-09 1.49653e-10 -1.39522e-09 -2.90554 0.965183 -0.102902 1.38284e-09 1.4965e-10 -1.39522e-09 -10.2786 0.731801 -0.0259123 1.38285e-09 1.49648e-10 -1.39523e-09 -2.22167 -0.733487 0.20892 -2.03217e-16 0.0 -3.88251e-19 3.56736 -16.5727 -0.915559 -0.164952 25.8575 0.562974 -7.2678 -11.8901 -22.2809 2.03217e-16 0.0 3.88251e-19 8.31992 -23.0127 4.58828 0.133387 31.9752 -0.476543 3.4828 -6.61588 17.7574
